PathFileType	3	(X/Y/Z)	D:\minhoCalibration\240510\subject1_KPNP\preferred\preferred09.trc
DataRate	CameraRate	NumFrames	NumMarkers	Units	OrigDataRate	OrigDataStartFrame	OrigNumFrames
200.0	200.0	33	10	mm	200.0	464	215	
Frame#	Time	Left_Ankle_Outer1			Left_Ankle_Inner1			Left_Knee_Outer1			Left_Knee_Inner1			Left_Wrist1			Right_Wrist1			Right_Knee_Inner1			Right_Knee_Outer1			Right_Ankle_Inner1			Right_Ankle_Outer1			
		X1	Y1	Z1	X2	Y2	Z2	X3	Y3	Z3	X4	Y4	Z4	X5	Y5	Z5	X6	Y6	Z6	X7	Y7	Z7	X8	Y8	Z8	X9	Y9	Z9	X10	Y10	Z10	
464	2.31	-474.99017	146.24113	-546.6214	-516.09045	154.55254	-507.5513	-325.29807	559.89667	-421.20123	-422.68848	540.35492	-374.38385	-375.11533	981.61151	-655.16003	-588.77942	1190.1925	-438.27899	-308.07434	1015.0555	-121.01898	-364.75162	1105.6392	-104.09743	-341.45554	953.58533	330.36255	-329.89145	1055.9065	356.99698
465	2.315	-473.67709	147.0921	-545.79974	-515.38049	155.1973	-507.32523	-325.78281	560.69037	-417.15781	-424.59067	540.57068	-372.86823	-373.37009	981.71869	-650.66876	-592.87347	1188.5612	-437.80423	-307.91846	1015.9506	-119.65123	-371.49417	1102.0267	-100.74538	-344.87671	940.62067	328.65866	-338.66882	1042.1493	359.00757
466	2.32	-472.63367	147.96033	-544.97382	-514.79187	155.77989	-506.79242	-326.60858	561.20526	-413.56415	-426.65652	541.23285	-370.77069	-371.67004	981.83899	-646.20361	-596.96252	1186.4408	-437.16507	-308.86166	1015.7119	-116.93094	-377.78644	1097.5089	-97.408768	-347.66879	926.57648	327.09949	-348.05566	1026.6868	360.98059
467	2.325	-472.07822	148.71446	-544.11603	-514.27527	156.59413	-506.6077	-327.22003	561.98706	-410.48828	-427.30847	541.18768	-370.7247	-369.5368	982.27246	-642.27399	-601.04657	1183.9835	-436.72345	-311.60944	1013.0529	-113.52397	-383.97153	1092.2389	-93.685051	-347.01273	908.74506	325.55124	-357.25845	1009.5637	362.36343
468	2.33	-471.92712	149.32811	-543.19202	-514.49298	156.64722	-505.67221	-328.03885	562.539	-407.77942	-428.57507	542.25385	-368.22668	-366.77869	983.3512	-638.86438	-605.10596	1181.2582	-436.36368	-315.75018	1008.2794	-110.45388	-390.65985	1086.4982	-89.329201	-351.70978	892.66522	322.99936	-366.19742	991.98914	363.37827
469	2.335	-472.16742	149.6767	-541.95142	-514.44574	157.10349	-505.00119	-328.70734	562.97852	-405.62506	-429.33093	541.89429	-367.92581	-364.81531	984.10162	-634.98724	-609.09009	1178.3328	-436.10645	-320.42722	1002.6549	-108.20214	-397.03439	1080.3533	-85.013969	-356.24017	876.28357	319.97861	-374.9296	973.1225	363.21991
470	2.34	-472.33408	150.37912	-541.47589	-514.76849	157.44623	-504.23212	-329.32095	563.40277	-403.85754	-430.02023	542.8006	-366.08151	-362.03055	985.2536	-632.03088	-612.91571	1175.2024	-436.00674	-326.56058	996.63605	-105.88798	-402.26581	1073.4169	-81.574059	-358.73636	859.88452	317.35464	-383.17749	954.10162	362.67032
471	2.345	-472.8653	150.77972	-540.83112	-515.2865	157.68832	-503.66718	-330.41718	563.0816	-402.1593	-430.66739	542.39008	-366.0816	-359.24457	986.69177	-628.94934	-616.36035	1171.6832	-436.2243	-332.52084	990.38354	-104.49269	-407.20114	1066.3378	-78.432976	-362.8512	842.40076	313.72546	-391.086	934.82812	361.2547
472	2.35	-473.47745	151.07216	-540.37885	-515.89673	157.93713	-503.14651	-330.85187	563.41077	-401.46307	-431.15878	542.50006	-365.51178	-357.26199	987.91364	-625.46503	-619.4679	1167.7289	-436.56494	-338.53439	984.10797	-103.45866	-411.94247	1059.3203	-75.913498	-367.61469	825.20953	309.77118	-399.88419	915.29803	359.58557
473	2.355	-474.18686	151.27142	-539.99084	-516.32599	158.13614	-502.83075	-331.34244	563.42743	-400.90176	-431.6333	542.61096	-365.22223	-354.89618	989.30133	-622.44128	-622.58508	1163.8429	-436.3649	-344.34317	978.0271	-102.78694	-418.08142	1052.1576	-73.312767	-373.29779	807.61035	305.34628	-408.89481	895.4657	357.36981
474	2.36	-474.80112	151.47089	-539.73749	-517.02002	158.09929	-502.34921	-331.66772	563.41565	-400.69873	-431.99042	542.58563	-365.04938	-352.55917	990.64423	-619.63312	-625.26862	1160.0533	-436.52808	-349.95795	972.13049	-102.44412	-424.70114	1044.8225	-71.417313	-378.02097	790.20721	299.11182	-418.21735	875.5022	354.79321
475	2.365	-475.36368	151.45015	-539.59998	-517.39734	157.9574	-502.27551	-332.0368	563.2616	-400.68298	-432.38028	542.57263	-365.1008	-350.79605	991.93542	-616.47968	-627.6897	1156.4347	-436.78018	-355.2196	966.55493	-102.38113	-431.82672	1037.1628	-70.109177	-385.58084	772.42273	294.38376	-427.77014	854.74835	351.39526
476	2.37	-475.79642	151.44464	-539.65918	-517.72656	157.94727	-502.16486	-332.38379	563.09491	-400.86755	-432.78455	542.40778	-365.42178	-348.92178	993.2865	-613.4303	-630.1582	1153.2762	-437.26657	-360.33612	961.05542	-102.43164	-439.29245	1029.313	-69.235832	-392.16199	755.3891	287.1608	-437.82159	833.96332	347.1691
477	2.375	-476.14389	151.25879	-539.89948	-518.28082	157.83432	-502.49338	-332.78802	562.84662	-401.13809	-433.60239	543.08032	-364.27115	-347.01562	994.70648	-610.44946	-632.00586	1149.8583	-438.61035	-365.29242	955.66296	-102.61601	-447.23108	1021.1298	-68.521744	-400.54999	736.88068	282.25485	-448.21194	812.90601	342.17657
478	2.38	-476.25616	150.9666	-540.20837	-518.44055	157.57227	-502.88171	-332.92123	562.72125	-401.63364	-434.83801	542.18451	-365.21771	-345.2002	996.09833	-607.43256	-634.48456	1147.9158	-438.95465	-369.99469	950.38403	-102.86356	-454.80603	1012.5674	-68.384888	-408.25812	718.74524	274.6105	-458.88324	791.38702	336.08475
479	2.385	-476.26755	150.52382	-540.63495	-518.24835	157.1042	-503.31552	-332.98047	562.52295	-402.14609	-434.84674	542.01794	-365.94421	-343.45282	997.37354	-604.33643	-636.45319	1145.4832	-440.57703	-374.66235	945.216	-103.25592	-462.66321	1004.1515	-68.382751	-418.60068	699.20685	267.74677	-470.03741	769.25311	329.11157
480	2.39	-476.12143	149.99063	-541.29059	-518.51855	156.72917	-504.24512	-333.32825	562.18896	-402.52908	-434.89474	541.4361	-366.82611	-341.71805	998.52911	-601.276	-638.67767	1143.87	-441.7084	-379.34583	940.23114	-103.60545	-470.27347	995.43219	-68.731155	-426.37891	680.20587	257.63025	-481.65866	747.17511	321.31433
481	2.395	-475.77478	149.38635	-542.00848	-518.28253	156.2672	-505.27542	-333.54874	561.74298	-402.9968	-435.30713	541.07343	-367.65012	-339.95834	999.71045	-598.21161	-640.45068	1142.0826	-443.43256	-384.0705	935.27704	-103.94585	-477.67334	986.60675	-69.29377	-435.02512	661.23584	247.59006	-493.68768	724.80402	312.54657
482	2.4	-475.20676	148.76315	-542.88336	-517.93414	155.51656	-506.32208	-333.68082	561.31848	-403.40659	-435.97812	540.15454	-368.7532	-338.32895	1000.7922	-595.23035	-642.97394	1140.5304	-444.09579	-388.80026	930.28369	-104.02023	-484.95251	977.37823	-69.952614	-443.93683	642.61676	236.20035	-505.72647	701.95081	302.42474
483	2.405	-474.46643	147.99155	-543.84326	-517.422	154.91206	-507.81583	-333.99237	560.8894	-403.74664	-436.50952	539.44452	-369.85254	-336.85846	1001.8724	-592.39233	-645.03436	1138.5563	-445.42657	-393.64813	924.91357	-103.81226	-492.0925	968.23254	-70.685539	-453.41473	624.12091	224.69914	-518.19843	679.6853	291.52405
484	2.41	-473.65076	147.17792	-544.80969	-516.84247	154.14526	-509.01962	-334.1554	560.32043	-404.10529	-437.5733	538.72968	-370.71991	-335.50937	1002.8305	-589.7207	-647.22821	1136.5372	-446.68536	-398.53473	919.04681	-103.48412	-499.48932	959.09442	-71.672478	-466.86053	603.93042	215.58934	-530.77191	657.31244	279.7103
485	2.415	-472.7785	146.29645	-545.80133	-516.43201	153.50441	-510.64438	-334.27051	559.62146	-404.45303	-437.19452	538.31104	-371.89987	-334.49152	1003.7595	-587.10992	-649.1629	1134.1277	-448.40714	-403.42911	912.427	-103.21461	-506.48898	949.78967	-72.705437	-474.45978	586.41663	198.79227	-543.44202	635.60907	266.55548
486	2.42	-471.65405	145.41045	-546.92023	-515.43292	152.50581	-512.02399	-334.28	558.99756	-404.78604	-438.53339	537.22394	-373.00278	-333.64679	1004.5562	-584.6745	-651.4704	1131.6823	-449.63208	-408.12494	905.13232	-103.14576	-513.5177	940.35925	-73.75222	-484.69998	567.67865	184.04608	-556.44617	614.26227	252.81184
487	2.425	-470.63489	144.63383	-547.93286	-514.60132	151.87979	-513.44495	-334.26114	558.33057	-404.99954	-438.49176	536.21503	-374.48337	-332.99988	1005.1395	-582.36176	-653.49799	1128.3103	-451.28934	-413.06647	897.12354	-103.34571	-519.90424	930.63464	-75.155815	-496.67883	548.31018	169.72833	-569.35541	593.28064	237.91312
488	2.43	-469.63681	143.70999	-548.91522	-513.90698	150.83437	-514.7998	-334.15149	557.46338	-405.3772	-438.58868	535.54065	-375.44675	-332.43884	1005.5847	-580.11218	-655.31573	1124.9191	-452.87433	-418.08472	888.59534	-103.86674	-526.10516	920.86292	-76.846848	-509.74078	529.63885	155.54045	-582.27002	572.57776	222.21608
489	2.435	-468.51187	142.96869	-549.86914	-512.88367	149.4015	-515.36755	-333.9147	556.71191	-405.66867	-439.01224	534.40155	-376.49167	-331.90558	1005.854	-577.93335	-656.78827	1120.9922	-455.02881	-423.21036	879.84686	-104.67752	-531.90442	911.17224	-78.846306	-521.05365	511.96933	139.51447	-595.3299	552.51361	205.57703
490	2.44	-467.57376	142.06918	-550.76593	-512.44958	148.91605	-516.99512	-333.68484	555.90002	-405.9072	-438.96301	533.85455	-377.28946	-331.39877	1005.9365	-575.76086	-658.75769	1117.4432	-456.2597	-428.48181	870.89136	-105.78888	-537.6994	901.01294	-81.264023	-533.13037	494.26889	123.02051	-608.05505	532.38916	187.41315
491	2.445	-466.81934	141.20334	-551.53571	-511.82431	148.15712	-518.11853	-333.40561	555.07281	-406.16626	-439.34949	532.65259	-378.11917	-330.89731	1005.8641	-573.55414	-660.40863	1113.2267	-458.05676	-433.93973	861.89246	-107.23761	-543.55823	891.46893	-83.861786	-544.33612	476.96008	104.92294	-620.72552	512.82916	168.50351
492	2.45	-466.11334	140.37337	-552.33032	-511.45822	147.76784	-519.23779	-333.04547	554.23987	-406.36252	-438.87326	532.02222	-378.80273	-330.21564	1005.7411	-571.48535	-661.90002	1109.0524	-459.72699	-439.57373	852.95551	-108.94423	-549.12439	881.84662	-86.768692	-554.98798	460.28229	85.77343	-633.32697	493.89914	148.70264
493	2.455	-465.51532	139.56911	-553.1402	-510.86407	146.69717	-520.26257	-332.60193	553.35321	-406.49997	-439.06033	530.88324	-379.26154	-329.47992	1005.5722	-569.49274	-663.01917	1104.5028	-462.10455	-445.29706	844.02612	-110.97254	-554.77679	872.11554	-90.87204	-565.84369	444.15408	66.468819	-645.75897	475.59955	128.16902
494	2.46	-464.9725	138.68359	-553.79047	-510.80017	146.6489	-521.56653	-332.30884	552.31372	-406.66812	-438.53873	530.19666	-379.68118	-328.97025	1005.1771	-567.46454	-664.82727	1100.4019	-463.59363	-451.09134	835.12134	-113.36679	-560.96545	863.38245	-94.438461	-575.49231	429.16803	45.694523	-657.87238	457.88013	106.67525
495	2.465	-464.69269	137.86113	-554.401	-511.00845	145.90578	-523.22205	-331.93469	551.37927	-406.6358	-438.13324	529.15851	-380.02475	-328.50821	1004.7042	-565.50464	-666.16895	1096.0801	-465.63708	-456.94485	826.1994	-116.10651	-566.93573	854.29095	-98.995934	-585.9845	414.20352	25.234859	-669.63849	440.8829	84.273094
496	2.47	-464.42767	137.02815	-555.00537	-511.01898	145.13446	-524.15869	-331.58203	550.37329	-406.67923	-438.20554	528.26239	-379.8623	-327.92853	1004.1829	-563.63007	-667.50281	1091.7649	-467.82175	-462.76013	817.22754	-119.1262	-573.55243	845.33087	-103.36224	-595.34052	399.98801	3.6497078	-681.12396	424.71918	61.234783
